<svg width="current" height="current" viewBox="0 0 20 20" fill="none" xmlns="http://www.w3.org/2000/svg">
<g id="camera-01">
<g id="Icon">
<path d="M1.66699 6.98101C1.66699 6.68908 1.66699 6.54311 1.67917 6.42017C1.79666 5.23438 2.73472 4.29632 3.9205 4.17884C4.04345 4.16666 4.19729 4.16666 4.50498 4.16666C4.62354 4.16666 4.68282 4.16666 4.73315 4.16361C5.37583 4.12469 5.93862 3.71905 6.17878 3.12166C6.19759 3.07487 6.21517 3.02213 6.25033 2.91666C6.28548 2.81118 6.30306 2.75844 6.32187 2.71166C6.56203 2.11426 7.12482 1.70863 7.7675 1.6697C7.81784 1.66666 7.87343 1.66666 7.98461 1.66666H12.016C12.1272 1.66666 12.1828 1.66666 12.2331 1.6697C12.8758 1.70863 13.4386 2.11426 13.6788 2.71166C13.6976 2.75844 13.7152 2.81118 13.7503 2.91666C13.7855 3.02213 13.8031 3.07487 13.8219 3.12166C14.062 3.71905 14.6248 4.12469 15.2675 4.16361C15.3178 4.16666 15.3771 4.16666 15.4957 4.16666C15.8034 4.16666 15.9572 4.16666 16.0802 4.17884C17.2659 4.29632 18.204 5.23438 18.3215 6.42017C18.3337 6.54311 18.3337 6.68908 18.3337 6.98101V13.5C18.3337 14.9001 18.3337 15.6002 18.0612 16.135C17.8215 16.6054 17.439 16.9878 16.9686 17.2275C16.4339 17.5 15.7338 17.5 14.3337 17.5H5.66699C4.26686 17.5 3.5668 17.5 3.03202 17.2275C2.56161 16.9878 2.17916 16.6054 1.93948 16.135C1.66699 15.6002 1.66699 14.9001 1.66699 13.5V6.98101Z" stroke="current" stroke-width="1.5" stroke-linecap="round" stroke-linejoin="round"/>
<path d="M10.0003 13.75C11.8413 13.75 13.3337 12.2576 13.3337 10.4167C13.3337 8.57571 11.8413 7.08332 10.0003 7.08332C8.15938 7.08332 6.66699 8.57571 6.66699 10.4167C6.66699 12.2576 8.15938 13.75 10.0003 13.75Z" stroke="current" stroke-width="1.5" stroke-linecap="round" stroke-linejoin="round"/>
</g>
</g>
</svg>
