<svg width="20" height="15" viewBox="0 0 20 15" fill="none" xmlns="http://www.w3.org/2000/svg">
<path d="M2.0027 2.4458L2.00306 2.44545L2.17014 2.27894L3.28406 1.16417C3.47995 0.969283 3.74681 0.883313 4.0027 0.883313C4.25859 0.883313 4.52545 0.969283 4.72134 1.16417C5.11115 1.55498 5.11115 2.21065 4.72134 2.60145L2.72134 4.60145C2.33054 4.99125 1.67487 4.99125 1.28406 4.60145L0.284065 3.60145C-0.10574 3.21065 -0.10574 2.55497 0.284065 2.16417L0.284064 2.16417C0.674868 1.77437 1.33054 1.77437 1.72134 2.16417L2.00235 2.44615L2.0027 2.4458ZM2.0027 7.44579L2.00306 7.44544L2.17005 7.27902L2.17016 7.27891L3.28406 6.16417C3.47995 5.96928 3.74681 5.88331 4.0027 5.88331C4.25859 5.88331 4.52545 5.96928 4.72134 6.16416C5.11115 6.55497 5.11115 7.21064 4.72134 7.60144L2.72134 9.60144C2.33054 9.99125 1.67487 9.99125 1.28406 9.60144L0.284065 8.60144C-0.10574 8.21064 -0.10574 7.55497 0.284064 7.16416C0.674868 6.77436 1.33054 6.77436 1.72134 7.16416L2.00235 7.44614L2.0027 7.44579ZM2.0027 12.4458L2.00306 12.4454L2.17023 12.2788L3.28406 11.1642C3.47995 10.9693 3.74681 10.8833 4.0027 10.8833C4.25859 10.8833 4.52545 10.9693 4.72134 11.1642C5.11115 11.555 5.11115 12.2106 4.72134 12.6014L2.72134 14.6014C2.33054 14.9912 1.67487 14.9912 1.28406 14.6014L0.284065 13.6014C-0.10574 13.2106 -0.10574 12.555 0.284064 12.1642C0.674868 11.7744 1.33054 11.7744 1.72134 12.1642L2.00235 12.4461L2.0027 12.4458ZM7.0032 2.88281C7.0032 2.33109 7.45097 1.88331 8.0027 1.88331H19.0027C19.5544 1.88331 20.0022 2.33109 20.0022 2.88281C20.0022 3.43453 19.5544 3.88231 19.0027 3.88231H8.0027C7.45097 3.88231 7.0032 3.43453 7.0032 2.88281ZM7.0032 7.8828C7.0032 7.33108 7.45097 6.8833 8.0027 6.8833H19.0027C19.5544 6.8833 20.0022 7.33108 20.0022 7.8828C20.0022 8.43453 19.5544 8.8823 19.0027 8.8823H8.0027C7.45097 8.8823 7.0032 8.43453 7.0032 7.8828ZM7.0032 12.8828C7.0032 12.3311 7.45097 11.8833 8.0027 11.8833H19.0027C19.5544 11.8833 20.0022 12.3311 20.0022 12.8828C20.0022 13.4345 19.5544 13.8823 19.0027 13.8823H8.0027C7.45097 13.8823 7.0032 13.4345 7.0032 12.8828Z" fill="#ECECEC" stroke="#ECECEC" stroke-width="0.001"/>
</svg>
