<svg width="20" height="17" viewBox="0 0 20 17" fill="none" xmlns="http://www.w3.org/2000/svg">
<path d="M16.999 0.906255C15.512 0.909255 14.515 2.01127 14.405 2.09327C13.816 2.53627 13.176 2.94326 12.499 3.28126C11.077 3.99226 9.53502 4.43126 7.99902 4.68726C7.46102 4.77726 6.97503 4.84325 6.53003 4.87525C6.27003 4.89325 6.08402 4.90626 5.99902 4.90626H3.93701C1.73201 4.90626 -0.000976562 6.69226 -0.000976562 8.90626C-0.000976562 11.1153 1.79002 12.9063 3.99902 12.9063V13.9063C3.99902 15.5633 5.34202 16.9063 6.99902 16.9063C8.65602 16.9063 9.99902 15.5633 9.99902 13.9063L10.005 13.5653C10.847 13.8073 11.709 14.1353 12.499 14.5313C13.172 14.8683 13.819 15.2793 14.405 15.7183C14.515 15.8013 15.629 16.9153 16.999 16.9063C18.641 16.8953 19.999 15.6303 19.999 14.0313V3.78126C19.999 2.18226 18.661 0.903255 16.999 0.906255ZM16.999 2.90626C17.566 2.90626 17.999 3.31826 17.999 3.78126V14.0313C17.999 14.4943 17.566 14.9063 16.999 14.9063C16.432 14.9063 15.999 14.4943 15.999 14.0313C15.999 11.5033 15.999 6.30926 15.999 3.78126C15.999 3.31826 16.432 2.90626 16.999 2.90626ZM13.999 4.72727C13.999 7.24227 13.99 10.5452 13.99 13.0602C13.784 12.9452 13.618 12.8563 13.405 12.7503C11.788 11.9393 10.063 11.4123 8.34302 11.1253C7.30702 10.9523 6.48502 10.9063 5.99902 10.9063V6.90626C6.48502 6.90626 7.30802 6.86026 8.34302 6.68726C10.062 6.40126 11.789 5.87026 13.405 5.06226C13.619 4.95526 13.792 4.84327 13.999 4.72727ZM3.93701 6.90626H3.99902V10.9063C2.89402 10.9063 1.99902 10.0113 1.99902 8.90626C1.99902 7.78526 2.84801 6.90626 3.93701 6.90626ZM5.99902 12.9063C6.08402 12.9063 6.27003 12.9193 6.53003 12.9373C6.97503 12.9693 7.46102 13.0353 7.99902 13.1253V13.9063C7.99902 14.4583 7.55102 14.9063 6.99902 14.9063C6.44702 14.9063 5.99902 14.4583 5.99902 13.9063V12.9063Z" fill="#ECECEC"/>
</svg>
