<svg width="current" height="current" viewBox="0 0 20 20" fill="none" xmlns="http://www.w3.org/2000/svg">
<path fill-rule="evenodd" clip-rule="evenodd" d="M9.99996 18.3337C5.39996 18.3337 1.66663 14.6087 1.66663 10.0003C1.66663 5.40033 5.39996 1.66699 9.99996 1.66699C14.6083 1.66699 18.3333 5.40033 18.3333 10.0003C18.3333 14.6087 14.6083 18.3337 9.99996 18.3337ZM12.6583 13.092C12.7583 13.1503 12.8666 13.1837 12.9833 13.1837C13.1916 13.1837 13.4 13.0753 13.5166 12.8753C13.6916 12.5837 13.6 12.2003 13.3 12.017L10.3333 10.2503V6.40033C10.3333 6.05033 10.05 5.77533 9.70829 5.77533C9.36663 5.77533 9.08329 6.05033 9.08329 6.40033V10.6087C9.08329 10.8253 9.19996 11.0253 9.39163 11.142L12.6583 13.092Z" fill="#C7C7C7"/>
</svg>
